<svg width="163" height="48" viewBox="0 0 163 48" fill="none" xmlns="http://www.w3.org/2000/svg">
<path d="M9.97846 32.0006C9.12186 31.1402 8.44421 30.1201 7.98433 28.9986C7.52445 27.8772 7.29137 26.6764 7.29844 25.4652C7.29532 24.254 7.53486 23.0543 8.00303 21.9363C8.4712 20.8183 9.15862 19.8044 10.0251 18.9539C10.3962 18.6256 10.6962 18.2253 10.9065 17.7775C11.1168 17.3298 11.2331 16.844 11.2482 16.35C11.2633 15.856 11.177 15.3641 10.9945 14.9044C10.8119 14.4447 10.5371 14.027 10.1867 13.6768C9.83631 13.3265 9.4178 13.0511 8.95676 12.8675C8.49573 12.6838 8.00188 12.5957 7.50547 12.6087C7.00905 12.6216 6.5205 12.7352 6.06974 12.9426C5.61898 13.15 5.2155 13.4468 4.88399 13.8148C1.77015 16.8957 0.0133822 21.0815 7.61375e-05 25.4516C-0.01323 29.8216 1.71802 34.0179 4.81303 37.1176C5.14346 37.4851 5.54562 37.7818 5.995 37.9895C6.44438 38.1972 6.93155 38.3117 7.42683 38.326C7.92211 38.3402 8.41511 38.2539 8.87578 38.0723C9.33646 37.8907 9.75515 37.6177 10.1063 37.2698C10.4575 36.9219 10.7338 36.5064 10.9185 36.0488C11.1031 35.5911 11.1921 35.1009 11.1801 34.6078C11.1682 34.1148 11.0555 33.6294 10.8489 33.1812C10.6423 32.7329 10.3461 32.3312 9.97846 32.0006Z" fill="#FFDA00"/>
<path d="M10.0253 18.9532C11.7715 17.2326 14.1319 16.2713 16.5891 16.28C19.0462 16.2887 21.3996 17.2667 23.1335 18.9996C23.4628 19.3709 23.8649 19.6714 24.3151 19.8823C24.7653 20.0933 25.2541 20.2104 25.7515 20.2264C26.2488 20.2425 26.7442 20.1571 27.2072 19.9755C27.6702 19.7939 28.091 19.52 28.4437 19.1706C28.7964 18.8212 29.0735 18.4037 29.2582 17.9438C29.4428 17.4838 29.5309 16.9912 29.5172 16.4961C29.5034 16.001 29.3881 15.5139 29.1782 15.0648C28.9684 14.6157 28.6685 14.2141 28.2969 13.8846C26.7701 12.3453 24.9527 11.1214 22.9493 10.2832C20.9458 9.44499 18.7958 9.00895 16.6225 9.00014C14.4493 8.99132 12.2957 9.40991 10.2855 10.2319C8.27524 11.0538 6.44795 12.2629 4.90856 13.7898C4.53605 14.1165 4.23444 14.5154 4.02218 14.9621C3.80993 15.4088 3.69149 15.8939 3.67411 16.3877C3.65674 16.8816 3.74079 17.3737 3.92114 17.8341C4.10148 18.2945 4.37432 18.7134 4.72295 19.0653C5.07158 19.4171 5.48868 19.6944 5.94871 19.8802C6.40874 20.066 6.90203 20.1564 7.39839 20.1459C7.89475 20.1355 8.38374 20.0243 8.83543 19.8192C9.28712 19.6141 9.69202 19.3194 10.0253 18.9532Z" fill="#67B3FF"/>
<path d="M23.1097 32.0467C22.2456 32.901 21.2206 33.5772 20.0935 34.0367C18.9664 34.4962 17.7593 34.7298 16.5414 34.7243C15.3238 34.726 14.118 34.486 12.9947 34.0183C11.8714 33.5506 10.8531 32.8645 9.99948 32.0003C9.66957 31.6309 9.26738 31.3324 8.81752 31.1231C8.36767 30.9137 7.87962 30.798 7.38327 30.7829C6.88691 30.7679 6.39269 30.8538 5.93086 31.0355C5.46903 31.2172 5.04932 31.4907 4.69742 31.8395C4.34552 32.1882 4.06884 32.6048 3.88431 33.0636C3.69979 33.5225 3.61131 34.014 3.62429 34.5081C3.63727 35.0022 3.75144 35.4885 3.95981 35.9371C4.16817 36.3857 4.46635 36.7873 4.83608 37.1173C6.36555 38.6565 8.18518 39.8801 10.1907 40.718C12.1961 41.5559 14.3481 41.9917 16.5231 42.0003C18.6981 42.0089 20.8534 41.5902 22.8655 40.7682C24.8777 39.9463 26.707 38.7371 28.2488 37.2101C28.5894 36.8743 28.8602 36.4749 29.0458 36.0349C29.2314 35.5949 29.328 35.1228 29.3303 34.6455C29.3326 34.1683 29.2404 33.6953 29.059 33.2536C28.8776 32.8118 28.6105 32.41 28.2731 32.0709C27.9356 31.7319 27.5344 31.4623 27.0923 31.2776C26.6502 31.0929 26.1759 30.9967 25.6964 30.9945C25.217 30.9922 24.7417 31.084 24.2979 31.2645C23.8541 31.4451 23.4503 31.7109 23.1097 32.0467Z" fill="#EB5A68"/>
<path d="M10.0247 18.9536C9.51321 19.462 8.86155 19.8078 8.15235 19.9471C7.44315 20.0864 6.70836 20.0129 6.04119 19.7359C5.37402 19.4589 4.80454 18.991 4.40497 18.3914C4.00541 17.7918 3.79377 17.0876 3.79691 16.3681C3.80004 15.6486 4.01781 14.9463 4.42259 14.3502C4.82736 13.7541 5.4009 13.2911 6.07046 13.0198C6.74002 12.7486 7.47542 12.6815 8.18338 12.8269C8.89134 12.9723 9.53996 13.3237 10.047 13.8366C10.7224 14.5198 11.0991 15.4411 11.0949 16.3996C11.0908 17.3582 10.706 18.2762 10.0247 18.9536Z" fill="#47A1FF"/>
<path d="M9.95333 37.1167C9.44167 37.6249 8.78988 37.9705 8.08062 38.1095C7.37136 38.2485 6.63661 38.1747 5.96955 37.8975C5.30249 37.6202 4.73319 37.152 4.33387 36.5523C3.93454 35.9526 3.72318 35.2483 3.7266 34.5288C3.73002 33.8093 3.94807 33.1071 4.35308 32.5111C4.75809 31.9152 5.33181 31.4524 6.00148 31.1814C6.67114 30.9105 7.40657 30.8436 8.11447 30.9893C8.82238 31.135 9.47086 31.4866 9.97765 31.9997C10.6528 32.6832 11.0292 33.6047 11.0246 34.5632C11.0201 35.5217 10.635 36.4396 9.95333 37.1167Z" fill="#D5465F"/>
<path d="M44.5339 29.0231C45.5861 28.2322 45.726 28.6741 46.6139 29.5578C47.0579 29.9997 48.2722 30.7685 47.4775 31.4182C45.8192 32.766 44.3231 33.3713 42.2067 33.3713C37.4163 33.3492 34.0287 29.7899 34.3004 25.0684C34.416 22.9538 35.2573 20.9522 36.9176 19.5801C38.436 18.3009 40.3274 17.744 42.3141 17.7904C43.2878 17.7875 44.2525 17.9768 45.1523 18.3473C45.7617 18.5663 46.336 18.8721 46.8572 19.2553C47.9093 20.0624 47.4187 20.5345 46.5997 21.3476C46.4132 21.5333 46.2267 21.7209 46.0625 21.9066C45.6428 22.3242 45.3611 22.6269 44.8015 22.2314C43.7271 21.4869 42.3688 21.0914 41.0856 21.4243C36.95 22.4695 37.1365 29.7959 42.2087 29.8201C43.0495 29.8091 43.8646 29.5297 44.5339 29.0231ZM159.493 33.4621C159.327 33.4629 159.163 33.431 159.009 33.3683C158.856 33.3055 158.716 33.2131 158.599 33.0965C158.481 32.9798 158.388 32.8411 158.325 32.6885C158.262 32.5359 158.23 32.3722 158.23 32.2071L158.301 15.9744C158.3 15.8093 158.332 15.6456 158.395 15.4929C158.458 15.3401 158.551 15.2013 158.668 15.0845C158.786 14.9676 158.925 14.875 159.078 14.812C159.232 14.749 159.396 14.7168 159.562 14.7174H160.918C161.084 14.7168 161.249 14.7491 161.402 14.8122C161.556 14.8753 161.695 14.9681 161.812 15.0852C161.93 15.2023 162.022 15.3413 162.085 15.4943C162.148 15.6473 162.18 15.8111 162.179 15.9764L162.108 32.2091C162.109 32.3742 162.077 32.5377 162.014 32.6904C161.951 32.843 161.858 32.9817 161.741 33.0984C161.623 33.2151 161.484 33.3075 161.331 33.3703C161.177 33.4331 161.013 33.465 160.847 33.4642L159.493 33.4621ZM152.398 31.5796C150.926 32.9517 149.523 33.672 147.443 33.672C143.239 33.6478 141.228 30.1833 141.228 26.2992L141.252 19.6951C141.251 19.5301 141.284 19.3666 141.347 19.214C141.41 19.0615 141.503 18.923 141.621 18.8065C141.738 18.69 141.878 18.5978 142.031 18.5352C142.185 18.4727 142.349 18.441 142.515 18.4421H143.871C144.037 18.4413 144.201 18.4732 144.355 18.536C144.508 18.5988 144.647 18.6912 144.764 18.8079C144.882 18.9246 144.975 19.0633 145.038 19.2159C145.101 19.3685 145.133 19.5321 145.132 19.6971L145.11 26.3012C145.11 28.4642 146.277 30.1611 148.568 30.1611C150.859 30.1611 152.26 28.2544 152.282 26.1257V23.7669C152.264 23.6753 152.256 23.5818 152.26 23.4885L152.282 19.7435C152.281 19.5785 152.313 19.415 152.376 19.2623C152.44 19.1097 152.532 18.971 152.65 18.8543C152.767 18.7376 152.906 18.6452 153.06 18.5824C153.213 18.5196 153.377 18.4877 153.543 18.4885H154.881C155.047 18.4877 155.211 18.5196 155.365 18.5824C155.518 18.6452 155.657 18.7376 155.774 18.8543C155.892 18.971 155.985 19.1097 156.048 19.2623C156.111 19.415 156.143 19.5785 156.142 19.7435L156.097 32.2091C156.094 32.539 155.96 32.854 155.723 33.0852C155.487 33.3163 155.168 33.4447 154.836 33.442H153.691C153.366 33.4319 153.057 33.2987 152.826 33.0697C152.596 32.8406 152.463 32.5329 152.452 32.2091L152.398 31.5796ZM136.267 18.4885H138.884C139.05 18.4909 139.214 18.5259 139.366 18.5916C139.518 18.6573 139.656 18.7524 139.771 18.8713C139.886 18.9902 139.977 19.1307 140.037 19.2845C140.097 19.4384 140.126 19.6026 140.123 19.7678V20.6273C140.12 20.9587 139.987 21.2758 139.752 21.5104C139.517 21.7451 139.199 21.8787 138.866 21.8823H136.243L136.196 32.1385C136.197 32.3036 136.165 32.4673 136.102 32.62C136.039 32.7728 135.946 32.9116 135.828 33.0284C135.711 33.1453 135.572 33.2379 135.419 33.3009C135.265 33.3639 135.101 33.3961 134.935 33.3956H133.581C133.415 33.3961 133.25 33.3639 133.097 33.301C132.943 33.238 132.804 33.1454 132.687 33.0286C132.569 32.9117 132.476 32.7729 132.413 32.6202C132.35 32.4674 132.317 32.3037 132.318 32.1385L132.364 17.9538C132.364 14.8606 134.14 12.4171 137.319 12.1387C137.412 12.1387 137.481 12.1165 137.574 12.1165C137.761 12.1044 137.949 12.1044 138.136 12.1165H139.352C139.518 12.1189 139.682 12.1538 139.834 12.2194C139.986 12.285 140.124 12.3798 140.239 12.4986C140.354 12.6173 140.444 12.7575 140.505 12.9111C140.565 13.0647 140.594 13.2288 140.591 13.3937V14.1847C140.589 14.5171 140.455 14.8353 140.219 15.0705C139.983 15.3057 139.664 15.4391 139.33 15.4417H138.349C136.853 15.4417 136.222 16.5797 136.198 17.976L136.267 18.4885ZM126.875 18.4421H129.743C130.075 18.4453 130.391 18.5793 130.623 18.8146C130.856 19.0499 130.985 19.3673 130.982 19.6971V20.5567C130.979 20.8865 130.844 21.2016 130.608 21.4328C130.371 21.6639 130.052 21.7922 129.721 21.7895H126.85L126.828 28.0647C126.828 29.2753 127.412 29.9715 128.626 29.9715H129.21C129.542 29.9752 129.858 30.1096 130.09 30.3452C130.323 30.5809 130.451 30.8985 130.449 31.2285V32.1002C130.445 32.4298 130.31 32.7446 130.074 32.9756C129.838 33.2067 129.519 33.3352 129.188 33.333H128.089C127.886 33.337 127.683 33.3289 127.481 33.3088C124.373 33.107 122.994 31.1014 122.994 28.0768C123.019 24.007 123.019 19.9615 123.041 15.8917C123.043 15.7282 123.077 15.5666 123.141 15.4162C123.205 15.2657 123.299 15.1294 123.416 15.0149C123.533 14.9004 123.672 14.8101 123.824 14.749C123.977 14.6879 124.14 14.6573 124.304 14.6588H125.636C125.967 14.662 126.284 14.796 126.516 15.0313C126.748 15.2666 126.877 15.584 126.875 15.9139V18.4421ZM85.3161 18.2787H88.1846C88.516 18.2819 88.8326 18.4158 89.0648 18.6511C89.297 18.8864 89.426 19.2039 89.4233 19.5337V20.3973C89.4195 20.727 89.2848 21.0417 89.0485 21.2728C88.8122 21.5038 88.4936 21.6323 88.1623 21.6301H85.2836V27.9073C85.2836 29.118 85.8675 29.8141 87.0818 29.8141H87.6677C87.8317 29.8157 87.9937 29.8494 88.1446 29.9133C88.2955 29.9772 88.4323 30.0701 88.5471 30.1867C88.662 30.3032 88.7526 30.4411 88.8139 30.5925C88.8752 30.7439 88.9059 30.9059 88.9043 31.0691V31.9287C88.9011 32.2585 88.7665 32.5736 88.5301 32.8047C88.2937 33.0359 87.9747 33.1642 87.6433 33.1615H86.7797C83.3902 33.1393 81.4278 31.6966 81.4278 27.9154C81.4521 23.8456 81.4521 19.798 81.4744 15.7283C81.4782 15.3982 81.6132 15.0832 81.85 14.8521C82.0867 14.621 82.4058 14.4927 82.7374 14.4954H84.0693C84.4007 14.4991 84.7171 14.6336 84.9489 14.8693C85.1808 15.105 85.3092 15.4226 85.3059 15.7525L85.3161 18.2787ZM68.4473 20.0462C69.8259 18.767 71.322 17.9538 73.26 17.9538C77.4666 17.976 79.6398 21.384 79.6155 25.3246L79.5931 31.9287C79.5937 32.0939 79.5614 32.2576 79.4981 32.4103C79.4348 32.5631 79.3418 32.7019 79.2244 32.8187C79.107 32.9356 78.9676 33.0281 78.8141 33.0911C78.6607 33.1541 78.4962 33.1862 78.3302 33.1857H76.976C76.81 33.1862 76.6455 33.1541 76.492 33.0911C76.3385 33.0281 76.1991 32.9356 76.0817 32.8187C75.9643 32.7019 75.8713 32.5631 75.808 32.4103C75.7448 32.2576 75.7125 32.0939 75.713 31.9287L75.7373 25.371C75.7373 23.208 74.5696 21.5111 72.2788 21.5111C69.9881 21.5111 68.5872 23.3957 68.5649 25.5345L68.5406 31.9287C68.5374 32.2585 68.4028 32.5736 68.1664 32.8047C67.93 33.0359 67.611 33.1642 67.2797 33.1615H65.9478C65.6164 33.1583 65.2998 33.0243 65.0676 32.789C64.8353 32.5537 64.7064 32.2363 64.7091 31.9065C64.7314 27.9295 64.7314 23.9304 64.7557 19.9534V19.4187C64.7568 19.0892 64.8891 18.7736 65.1235 18.541C65.358 18.3084 65.6755 18.1778 66.0065 18.1778H67.1519C67.4774 18.1874 67.7868 18.3204 68.0171 18.5495C68.2473 18.7787 68.3809 19.0867 68.3906 19.4106L68.4473 20.0462ZM110.085 20.2076C111.464 18.9304 112.958 18.1152 114.898 18.1152C119.104 18.1394 121.275 21.5575 121.253 25.488L121.229 32.1002C121.23 32.2653 121.197 32.429 121.134 32.5817C121.071 32.7344 120.979 32.8732 120.861 32.9901C120.744 33.107 120.605 33.1996 120.451 33.2626C120.298 33.3256 120.134 33.3578 119.968 33.3572H118.614C118.448 33.3578 118.283 33.3256 118.13 33.2626C117.976 33.1996 117.837 33.1071 117.719 32.9902C117.602 32.8734 117.509 32.7346 117.446 32.5819C117.382 32.4291 117.35 32.2654 117.351 32.1002L117.375 25.5425C117.375 23.3795 116.205 21.6826 113.916 21.6826C111.628 21.6826 110.225 23.5651 110.201 25.706L110.168 32.1002C110.164 32.4302 110.029 32.7453 109.793 32.9764C109.556 33.2074 109.237 33.3357 108.905 33.333H107.573C107.242 33.3293 106.926 33.1951 106.694 32.9598C106.463 32.7246 106.334 32.4075 106.337 32.078L106.383 19.5882C106.384 19.424 106.417 19.2616 106.481 19.1102C106.545 18.9588 106.638 18.8215 106.755 18.7062C106.873 18.5908 107.012 18.4998 107.165 18.4382C107.318 18.3766 107.481 18.3457 107.646 18.3473H108.792C109.118 18.358 109.428 18.4928 109.658 18.7239C109.888 18.955 110.021 19.265 110.028 19.5902L110.085 20.2076ZM55.7264 17.8368C51.1691 17.8126 47.9458 21.0914 47.9215 25.6031C47.8992 30.1611 51.0759 33.3956 55.6797 33.4178C60.2836 33.44 63.5069 30.2317 63.5292 25.6434C63.5536 21.162 60.2593 17.859 55.7264 17.8368ZM93.5548 27.1628C93.8812 29.2552 95.8922 30.1147 97.8546 30.1389C98.8383 30.1304 99.8093 29.9166 100.705 29.5114C100.849 29.453 100.989 29.3856 101.125 29.3096C101.593 29.0534 102.012 28.892 102.434 29.3096C102.667 29.5417 102.878 29.7757 103.111 29.9836C103.331 30.1927 103.535 30.4187 103.719 30.6595C104.35 31.4484 103.906 31.6361 103.182 32.1244C101.639 33.1474 99.6305 33.6579 97.7836 33.6579C92.8311 33.6357 89.5591 30.6313 89.5591 25.6596C89.5834 20.9602 92.8534 17.8449 97.5728 17.8671C102.388 17.8913 105.12 20.706 105.191 25.4961C105.213 26.7976 105.26 27.2172 103.906 27.2172L93.5548 27.1628ZM55.7264 21.3476C58.0861 21.3476 59.6511 23.3957 59.6511 25.6515C59.6511 28.0001 58.1793 29.8887 55.702 29.8887C53.2247 29.8887 51.7773 27.982 51.7773 25.6333C51.7773 23.2847 53.2734 21.3476 55.7264 21.3476ZM93.6582 23.9304L101.416 23.9525C101.135 22.0216 99.523 21.2548 97.6782 21.2548C95.8334 21.2548 94.2319 22.1164 93.6582 23.9304Z" fill="#29303A"/>
</svg>
