<svg width="134" height="69" viewBox="0 0 134 69" fill="none" xmlns="http://www.w3.org/2000/svg">
<g clip-path="url(#clip0_152_3954)">
<path d="M122.667 0.109375C129.198 0.109375 133.84 5.01871 133.84 11.0349C133.84 17.051 129.198 21.9604 122.667 21.9604C116.077 21.9604 111.521 17.051 111.521 11.0349C111.521 5.01871 116.077 0.109375 122.667 0.109375Z" fill="#B0B2C6"/>
<path d="M0.175045 29.6411H4.11762V50.1204H0.175045V29.6411ZM28.0649 47.3771C26.6356 48.8648 24.4142 50.5281 19.9207 50.5281C13.8758 50.5281 9.20665 45.949 9.20665 39.8227C9.20665 33.3751 14.4029 29.2305 20.0964 29.2305C24.0955 29.2305 26.7249 31.1287 28.0083 32.2951L25.6142 35.1544C24.7685 34.3094 22.8687 32.7622 20.153 32.7622C16.3295 32.7622 13.4381 35.9101 13.4381 39.8227C13.4381 43.6133 16.0942 46.9398 20.2989 46.9398C22.6334 46.9398 24.6196 45.8032 25.7303 44.7529L28.0649 47.3771ZM46.1519 32.9675H41.0421V50.1204H37.0995V32.9675H31.9896V29.6411H46.1519V32.9675ZM71.5375 40.4059H64.3253V50.1204H60.3827V29.6411H64.3253V37.0795H71.5375V29.6411H75.4801V50.1204H71.5375V40.4059ZM81.5934 29.6411H85.536V42.7415C85.536 45.22 87.2572 47.0588 89.4786 47.0588C91.697 47.0588 93.451 45.22 93.451 42.7415V29.6411H97.4233V42.9141C97.4233 46.9398 94.7374 50.5281 89.4518 50.5281C84.196 50.5281 81.5994 46.9398 81.5994 42.9141V29.6411H81.5934ZM103.504 29.8166C104.877 29.5816 106.452 29.3792 108 29.3792C111.97 29.3792 115.823 30.5753 115.823 34.9521C115.823 36.8771 114.626 38.338 113.953 38.8052C115.501 39.2396 117.544 41.0516 117.544 44.0239C117.544 44.6666 117.455 45.3093 117.193 45.8627C116.463 48.9243 113.369 50.415 108.111 50.415C106.711 50.415 105.192 50.296 103.498 50.0936V29.8166H103.504ZM107.473 37.6626H110.246C111.094 37.4008 111.91 36.526 111.91 35.327C111.91 33.3156 110.305 32.792 108.843 32.792C108.346 32.792 107.851 32.8485 107.47 32.908V37.6626H107.473ZM107.473 46.7345C107.997 46.7642 108.554 46.8237 109.078 46.8237C111.443 46.8237 113.488 45.9787 113.488 43.7323C113.488 42.447 112.524 40.9891 110.978 40.6975H107.473V46.7345ZM3.47442 67.1811V67.9071H0.160156V62.1051H3.3702V62.8401H1.02669V64.2682H2.91162V65.0031H1.02669V67.1752H3.47442V67.1811ZM5.32958 67.9101V62.0843L5.46953 62.0427L7.7922 64.3307L10.1089 62.0427L10.2489 62.0843V67.9101H9.38829V63.8933L7.83389 65.4554H7.74158L6.18718 63.8933V67.9101H5.32958ZM13.176 66.223V67.9101H12.3065V62.1498C14.4475 61.6946 15.8888 62.5961 15.8888 64.0748C15.8888 65.4792 14.6738 66.3064 13.176 66.223ZM13.176 65.4465C14.3671 65.5447 14.9954 64.9079 14.9954 64.0748C14.9954 63.3131 14.3433 62.6705 13.176 62.852V65.4465ZM20.2661 61.9921C22.0349 61.9921 23.3183 63.331 23.3183 65.015C23.3183 66.6931 22.0379 68.0231 20.2661 68.0231C18.4973 68.0231 17.2228 66.6931 17.2228 65.015C17.2228 63.331 18.4943 61.9921 20.2661 61.9921ZM20.2661 67.2495C21.4006 67.2495 22.3833 66.3569 22.3833 65.018C22.3833 63.6791 21.4006 62.7627 20.2661 62.7627C19.1256 62.7627 18.1578 63.6791 18.1578 65.018C18.1578 66.3569 19.1226 67.2495 20.2661 67.2495ZM31.9747 62.1081L29.7265 67.9755H29.6014L28.0619 63.9439L26.5224 67.9755H26.3974L24.1968 62.1081H25.1467L26.5105 65.9017L28.0143 62.0427H28.1394L29.6521 65.9523L31.0814 62.1111H31.9747V62.1081ZM36.7154 67.1811V67.9071H33.3981V62.1051H36.6082V62.8401H34.2676V64.2682H36.1526V65.0031H34.2676V67.1752H36.7154V67.1811ZM41.1582 65.6696L42.7722 67.9101H41.6734L40.3572 65.9761C40.0773 66.0326 39.7854 66.0505 39.44 66.0177V67.9101H38.5705V62.1498C40.8277 61.7035 42.1111 62.5544 42.1111 63.9915C42.1081 64.6193 41.8014 65.2739 41.1582 65.6696ZM39.437 65.2412C40.5448 65.3661 41.2148 64.8127 41.2148 64.0005C41.2148 63.2566 40.6103 62.6705 39.437 62.8609V65.2412ZM44.2104 62.1081H45.0799V67.9101H44.2104V62.1081ZM51.3452 62.1081V67.9101H50.5025V65.4137L47.9803 63.6196V67.9071H47.1376V62.0903L47.2537 62.0397L50.5025 64.3783V62.1051H51.3452V62.1081ZM56.6724 65.1995H58.4591V67.1157C57.7057 67.8416 56.9285 68.0231 56.1424 68.0231C54.2485 68.0231 53.0068 66.6693 53.0068 65.0002C53.0068 63.2388 54.4212 61.9921 56.0501 61.9921C57.1846 61.9921 57.8457 62.4533 58.2745 62.843C58.1018 63.0483 57.9112 63.2477 57.7355 63.453C57.3871 63.1376 56.8749 62.7597 56.0828 62.7597C54.9006 62.7597 53.9567 63.7356 53.9567 64.9823C53.9567 66.3034 54.8649 67.2555 56.1722 67.2555C56.7171 67.2555 57.3037 67.0323 57.6015 66.7854V65.9166H56.6665V65.1995H56.6724ZM62.9913 62.1081H63.8608V67.9101H62.9913V62.1081ZM70.129 62.1081V67.9101H69.2863V65.4137L66.7641 63.6196V67.9071H65.9214V62.0903L66.0375 62.0397L69.2863 64.3783V62.1051H70.129V62.1081ZM76.3972 62.1081V67.9101H75.5545V65.4137L73.0323 63.6196V67.9071H72.1896V62.0903L72.3058 62.0397L75.5545 64.3783V62.1051H76.3972V62.1081ZM81.1051 61.9921C82.8739 61.9921 84.1573 63.331 84.1573 65.015C84.1573 66.6931 82.8769 68.0231 81.1051 68.0231C79.3363 68.0231 78.0618 66.6931 78.0618 65.015C78.0618 63.331 79.3333 61.9921 81.1051 61.9921ZM81.1051 67.2495C82.2396 67.2495 83.2223 66.3569 83.2223 65.018C83.2223 63.6791 82.2396 62.7627 81.1051 62.7627C79.9646 62.7627 78.9968 63.6791 78.9968 65.018C78.9968 66.3569 79.9646 67.2495 81.1051 67.2495ZM90.2677 62.1081L87.7038 67.9755H87.5877L85.0417 62.1081H86.0244L87.6622 66.0743L89.3505 62.1081H90.2677ZM90.1784 67.9101L92.8822 62.0427H92.9983L95.6694 67.9101H94.7105L94.1894 66.7289H91.6673L91.1461 67.9101H90.1784ZM91.971 66.0088H93.8738L92.9298 63.8011L91.971 66.0088ZM100.02 62.843H98.5221V67.9071H97.6526V62.843H96.1726V62.1081H100.017V62.843H100.02ZM101.625 62.1081H102.494V67.9101H101.625V62.1081ZM107.199 61.9921C108.968 61.9921 110.252 63.331 110.252 65.015C110.252 66.6931 108.971 68.0231 107.199 68.0231C105.431 68.0231 104.156 66.6931 104.156 65.015C104.156 63.331 105.428 61.9921 107.199 61.9921ZM107.199 67.2495C108.334 67.2495 109.317 66.3569 109.317 65.018C109.317 63.6791 108.334 62.7627 107.199 62.7627C106.059 62.7627 105.091 63.6791 105.091 65.018C105.091 66.3569 106.056 67.2495 107.199 67.2495ZM116.13 62.1081V67.9101H115.287V65.4137L112.765 63.6196V67.9071H111.922V62.0903L112.038 62.0397L115.287 64.3783V62.1051H116.13V62.1081Z" fill="#B0B2C6"/>
</g>
<defs>
<clipPath id="clip0_152_3954">
<rect width="134" height="68.1356" fill="white"/>
</clipPath>
</defs>
</svg>
