<svg width="40" height="40" viewBox="0 0 40 40" fill="none" xmlns="http://www.w3.org/2000/svg">
<path d="M20 37.9163C18.8333 37.9163 17.65 37.4662 16.7667 36.5828L13.9167 33.7663C13.2 33.0663 12.2667 32.6829 11.2667 32.6829H10C6.55 32.6829 3.75 29.8996 3.75 26.483V8.29956C3.75 4.88289 6.55 2.09961 10 2.09961H30C33.45 2.09961 36.25 4.88289 36.25 8.29956V26.483C36.25 29.8996 33.45 32.6829 30 32.6829H28.7333C27.7333 32.6829 26.7833 33.0663 26.0833 33.7663L23.2333 36.5828C22.35 37.4662 21.1667 37.9163 20 37.9163ZM10 4.58293C7.93333 4.58293 6.25 6.24954 6.25 8.28288V26.4663C6.25 28.5163 7.93333 30.1662 10 30.1662H11.2667C12.9333 30.1662 14.5 30.8162 15.6833 31.9828L18.5333 34.7996C19.35 35.5996 20.6667 35.5996 21.4833 34.7996L24.3333 31.9828C25.5167 30.8162 27.0833 30.1662 28.75 30.1662H30C32.0667 30.1662 33.75 28.4996 33.75 26.4663V8.28288C33.75 6.23288 32.0667 4.58293 30 4.58293H10Z" fill="#3A78F2"/>
<path d="M17.3004 24.1837H12.8337C12.1004 24.1837 11.417 23.8336 10.9837 23.2336C10.567 22.6669 10.467 21.967 10.667 21.3004C11.2504 19.517 12.6837 18.5503 13.9504 17.6836C15.2837 16.7836 16.0337 16.217 16.0337 15.2504C16.0337 14.3837 15.3337 13.6836 14.467 13.6836C13.6004 13.6836 12.9004 14.3837 12.9004 15.2504C12.9004 15.9337 12.3337 16.5004 11.6504 16.5004C10.9671 16.5004 10.4004 15.9337 10.4004 15.2504C10.4004 13.017 12.217 11.1836 14.467 11.1836C16.717 11.1836 18.5337 13.0004 18.5337 15.2504C18.5337 17.6004 16.7671 18.8003 15.3504 19.767C14.4671 20.367 13.6337 20.9337 13.217 21.6837H17.2837C17.967 21.6837 18.5337 22.2503 18.5337 22.9337C18.5337 23.617 17.9837 24.1837 17.3004 24.1837Z" fill="#3A78F2"/>
<path d="M26.7334 24.1829C26.0501 24.1829 25.4834 23.6163 25.4834 22.9329V21.7828H22.2168C22.2168 21.7828 22.2168 21.7828 22.2001 21.7828C21.3835 21.7828 20.6335 21.3496 20.2168 20.6496C19.8001 19.9329 19.8001 19.0496 20.2168 18.3496C21.3501 16.3996 22.6668 14.1829 23.8668 12.2495C24.4001 11.3995 25.4168 11.0163 26.3668 11.2829C27.3168 11.5663 27.9835 12.433 27.9668 13.433V19.2995H28.3335C29.0168 19.2995 29.5835 19.8662 29.5835 20.5495C29.5835 21.2328 29.0168 21.7995 28.3335 21.7995H27.9834V22.9496C27.9834 23.6329 27.4334 24.1829 26.7334 24.1829ZM25.4834 14.3996C24.5001 15.9996 23.4834 17.7161 22.5668 19.2828H25.4834V14.3996Z" fill="#3A78F2"/>
</svg>
