<svg width="175" height="38" viewBox="0 0 175 38" fill="none" xmlns="http://www.w3.org/2000/svg">
<g opacity="0.5" clip-path="url(#clip0_152_3948)">
<path d="M61.7725 21.5022L60.7294 24.4541H60.6425C60.4687 23.7885 60.15 22.7756 59.6284 21.5601L54.0365 7.5239H48.5605V29.895H52.1822V16.0903C52.1822 15.2221 52.1822 14.2381 52.1533 13.0226C52.1243 12.4149 52.0663 11.9518 52.0374 11.6045H52.1243C52.2981 12.4727 52.5009 13.1094 52.6458 13.5146L59.3677 29.8371H61.9173L68.5812 13.3699C68.7261 12.9937 68.871 12.2412 69.0158 11.6045H69.1028C69.0158 13.2541 68.9579 14.7301 68.9289 15.6273V29.8081H72.7824V7.46602H67.5092L61.7725 21.5022ZM76.4331 13.7751H80.1996V29.8081H76.4331V13.7751ZM78.3453 7.00297C77.7079 7.00297 77.1864 7.23449 76.7518 7.63966C76.3172 8.04483 76.0854 8.56576 76.0854 9.20245C76.0854 9.8102 76.3172 10.3311 76.7518 10.7363C77.1864 11.1415 77.7079 11.3441 78.3453 11.3441C78.9827 11.3441 79.5332 11.1125 79.9389 10.7363C80.3735 10.3311 80.6053 9.8102 80.6053 9.20245C80.6053 8.5947 80.3735 8.07377 79.9389 7.63966C79.5622 7.23449 79.0117 7.00297 78.3453 7.00297ZM93.5564 13.6304C92.861 13.4857 92.1367 13.3988 91.4413 13.3988C89.7319 13.3988 88.1673 13.7751 86.8635 14.5275C85.5597 15.28 84.5167 16.3218 83.8503 17.6242C83.1549 18.9554 82.8072 20.4893 82.8072 22.2547C82.8072 23.7885 83.1549 25.1487 83.8213 26.3931C84.4877 27.6087 85.4149 28.5926 86.6607 29.2583C87.8486 29.9239 89.2394 30.2712 90.8039 30.2712C92.6003 30.2712 94.1359 29.895 95.3528 29.2004L95.3817 29.1714V25.6986L95.2369 25.8143C94.6864 26.2195 94.049 26.5668 93.4115 26.7694C92.7451 27.0009 92.1367 27.1167 91.6152 27.1167C90.1086 27.1167 88.9206 26.6826 88.0804 25.7275C87.2112 24.8014 86.7766 23.528 86.7766 21.9363C86.7766 20.2867 87.2112 18.9844 88.1094 18.0293C89.0076 17.0743 90.1955 16.5823 91.6442 16.5823C92.861 16.5823 94.1069 16.9875 95.2369 17.7978L95.3817 17.9136V14.2381L95.3528 14.2092C94.8602 14.0066 94.3097 13.7751 93.5564 13.6304ZM105.986 13.5146C105.059 13.5146 104.19 13.804 103.436 14.4118C102.799 14.9327 102.364 15.6851 101.988 16.5823H101.959V13.7751H98.1922V29.8081H101.959V21.618C101.959 20.2288 102.248 19.0712 102.886 18.2319C103.523 17.3637 104.335 16.9296 105.32 16.9296C105.667 16.9296 106.015 17.0164 106.45 17.0743C106.855 17.1901 107.145 17.3058 107.348 17.4505L107.493 17.5663V13.804L107.406 13.7751C107.145 13.6014 106.623 13.5146 105.986 13.5146ZM116.243 13.4278C113.606 13.4278 111.491 14.2092 110.013 15.743C108.507 17.2769 107.782 19.3895 107.782 22.0521C107.782 24.541 108.536 26.5668 109.984 28.0428C111.433 29.4898 113.403 30.2422 115.866 30.2422C118.445 30.2422 120.502 29.4608 121.979 27.8981C123.486 26.3353 124.21 24.2515 124.21 21.6758C124.21 19.1291 123.515 17.1032 122.095 15.6273C120.734 14.1513 118.734 13.4278 116.243 13.4278ZM119.256 25.7565C118.561 26.6536 117.46 27.0877 116.098 27.0877C114.736 27.0877 113.635 26.6536 112.853 25.6986C112.07 24.8014 111.694 23.4991 111.694 21.8495C111.694 20.142 112.099 18.8397 112.853 17.9136C113.635 16.9875 114.707 16.5244 116.069 16.5244C117.402 16.5244 118.445 16.9585 119.198 17.8557C119.951 18.7528 120.357 20.0552 120.357 21.7627C120.299 23.4991 119.98 24.8593 119.256 25.7565ZM132.613 20.4314C131.425 19.9394 130.671 19.5632 130.324 19.2448C130.034 18.9554 129.889 18.5503 129.889 18.0293C129.889 17.5952 130.063 17.1611 130.498 16.8717C130.932 16.5823 131.425 16.4376 132.149 16.4376C132.787 16.4376 133.453 16.5534 134.09 16.727C134.728 16.9006 135.307 17.1611 135.771 17.5084L135.916 17.6242V14.0934L135.829 14.0645C135.394 13.8908 134.815 13.7172 134.119 13.5725C133.424 13.4567 132.787 13.3988 132.265 13.3988C130.469 13.3988 128.991 13.8329 127.832 14.788C126.673 15.6851 126.123 16.9006 126.123 18.3187C126.123 19.0712 126.239 19.7368 126.499 20.2867C126.76 20.8366 127.137 21.3575 127.658 21.7916C128.18 22.1968 128.933 22.6598 129.976 23.0939C130.845 23.4702 131.512 23.7596 131.917 23.9911C132.323 24.2226 132.584 24.4831 132.787 24.6857C132.931 24.9172 133.018 25.2066 133.018 25.5828C133.018 26.6536 132.207 27.1745 130.556 27.1745C129.918 27.1745 129.252 27.0588 128.469 26.7983C127.687 26.5379 126.963 26.1616 126.354 25.7275L126.21 25.6118V29.2872L126.296 29.3161C126.847 29.5766 127.513 29.7503 128.325 29.9528C129.136 30.0975 129.86 30.2133 130.498 30.2133C132.439 30.2133 134.032 29.7792 135.162 28.8242C136.321 27.8981 136.93 26.7115 136.93 25.1776C136.93 24.1068 136.64 23.1518 136.003 22.4283C135.162 21.7337 134.119 21.0102 132.613 20.4314ZM146.868 13.4278C144.231 13.4278 142.116 14.2092 140.638 15.743C139.161 17.2769 138.407 19.3895 138.407 22.0521C138.407 24.541 139.161 26.5668 140.609 28.0428C142.058 29.4898 144.028 30.2422 146.491 30.2422C149.07 30.2422 151.127 29.4608 152.604 27.8981C154.111 26.3353 154.835 24.2515 154.835 21.6758C154.835 19.1291 154.14 17.1032 152.72 15.6273C151.359 14.1513 149.359 13.4278 146.868 13.4278ZM149.852 25.7565C149.157 26.6536 148.056 27.0877 146.694 27.0877C145.303 27.0877 144.231 26.6536 143.449 25.6986C142.667 24.8014 142.29 23.4991 142.29 21.8495C142.29 20.142 142.695 18.8397 143.449 17.9136C144.231 16.9875 145.303 16.5244 146.665 16.5244C147.969 16.5244 149.041 16.9585 149.794 17.8557C150.547 18.7528 150.953 20.0552 150.953 21.7627C150.953 23.4991 150.576 24.8593 149.852 25.7565ZM174.972 16.8717V13.7751H171.176V9.02881L171.061 9.05775L167.468 10.1286L167.381 10.1575V13.7751H161.702V11.7492C161.702 10.8231 161.934 10.0996 162.34 9.63656C162.745 9.17351 163.354 8.94199 164.107 8.94199C164.628 8.94199 165.179 9.05775 165.787 9.31822L165.932 9.40504V6.13475L165.845 6.10581C165.324 5.93217 164.628 5.81641 163.73 5.81641C162.6 5.81641 161.615 6.07687 160.717 6.51098C159.819 7.00297 159.152 7.6686 158.66 8.56576C158.167 9.43398 157.907 10.418 157.907 11.5466V13.7751H155.27V16.8428H157.907V29.8081H161.702V16.8717H167.381V25.1198C167.381 28.5058 168.974 30.2133 172.162 30.2133C172.683 30.2133 173.234 30.1265 173.755 30.0397C174.306 29.9239 174.711 29.7792 174.943 29.6634L174.972 29.6345V26.5379L174.827 26.6536C174.595 26.7983 174.393 26.9141 174.045 27.0009C173.755 27.0877 173.494 27.1167 173.292 27.1167C172.538 27.1167 172.017 26.943 171.64 26.5089C171.292 26.1037 171.118 25.4381 171.118 24.4541V16.8717H174.972Z" fill="#60658C"/>
<path d="M0 0H17.7608V17.7406H0V0Z" fill="#60658C"/>
<path d="M19.6152 0H37.376V17.7406H19.6152V0Z" fill="#60658C"/>
<path d="M0 19.5918H17.7608V37.3324H0V19.5918Z" fill="#60658C"/>
<path d="M19.6152 19.5918H37.376V37.3324H19.6152V19.5918Z" fill="#60658C"/>
</g>
<defs>
<clipPath id="clip0_152_3948">
<rect width="175" height="37.3333" fill="white"/>
</clipPath>
</defs>
</svg>
