<svg width="693" height="662" viewBox="0 0 693 662" fill="none" xmlns="http://www.w3.org/2000/svg">
<path d="M412.988 391.749L633.502 331.849L471.37 612.67L412.988 391.749Z" fill="#43B97F"/>
<path d="M83.6318 94.2441L237.061 84.6147L92.206 247.735L83.6318 94.2441Z" fill="#3A78F2"/>
<g clip-path="url(#clip0_152_4369)">
<rect x="121.238" y="113.793" width="398.206" height="388.634" rx="25" fill="#EA6621"/>
<path d="M586.438 177.261C559.523 204.175 515.886 204.175 488.972 177.261C462.057 150.346 462.057 106.709 488.972 79.7941L586.438 177.261Z" fill="#FFBB25"/>
<path d="M86.2388 444.252C119.202 425.221 161.353 436.515 180.384 469.478C199.416 502.442 188.122 544.592 155.158 563.624L86.2388 444.252Z" fill="#C280D2"/>
</g>
<rect x="189" y="64" width="305" height="438"/>
<rect x="84.9794" y="155.143" width="393.721" height="391.916" rx="24" transform="rotate(-13.2118 84.9794 155.143)" stroke="#ECECEC" stroke-width="2"/>
<defs>
<clipPath id="clip0_152_4369">
<rect x="121.238" y="113.793" width="398.206" height="388.634" rx="25" fill="white"/>
</clipPath>
</defs>
</svg>
