<svg width="175" height="45" viewBox="0 0 175 45" fill="none" xmlns="http://www.w3.org/2000/svg">
<path d="M56.0488 34.9653L58.2275 29.905C60.582 31.662 63.7095 32.5757 66.8018 32.5757C69.086 32.5757 70.5267 31.6972 70.5267 30.3618C70.4916 26.6369 56.8571 29.5536 56.7516 20.2062C56.7165 15.4622 60.9334 11.8076 66.9073 11.8076C70.4565 11.8076 74.0057 12.6861 76.5358 14.6891L74.4976 19.8548C72.1783 18.3789 69.2968 17.3247 66.5559 17.3247C64.6934 17.3247 63.4635 18.2032 63.4635 19.3277C63.4986 22.9823 77.2386 20.9793 77.3791 29.905C77.3791 34.7544 73.2677 38.163 67.3641 38.163C63.0418 38.163 59.0709 37.144 56.0488 34.9653ZM139.648 28.0777C138.559 29.9753 136.521 31.2755 134.166 31.2755C130.687 31.2755 127.876 28.4642 127.876 24.9853C127.876 21.5064 130.687 18.6952 134.166 18.6952C136.521 18.6952 138.559 19.9954 139.648 21.893L145.657 18.5546C143.408 14.5486 139.086 11.8076 134.166 11.8076C126.892 11.8076 120.989 17.7112 120.989 24.9853C120.989 32.2594 126.892 38.163 134.166 38.163C139.121 38.163 143.408 35.4572 145.657 31.4161L139.648 28.0777ZM80.4012 0.878906H87.9213V37.6711H80.4012V0.878906ZM148.609 0.878906V37.6711H156.129V26.6369L165.055 37.6711H174.683L163.333 24.5636L173.84 12.3347H164.633L156.129 22.4904V0.878906H148.609ZM110.271 28.148C109.181 29.9402 106.932 31.2755 104.402 31.2755C100.923 31.2755 98.1121 28.4642 98.1121 24.9853C98.1121 21.5064 100.923 18.6952 104.402 18.6952C106.932 18.6952 109.181 20.1008 110.271 21.9281V28.148ZM110.271 12.3347V15.3217C109.041 13.2484 105.984 11.8076 102.786 11.8076C96.1794 11.8076 90.9785 17.641 90.9785 24.9502C90.9785 32.2594 96.1794 38.163 102.786 38.163C105.984 38.163 109.041 36.7223 110.271 34.649V37.6359H117.791V12.3347H110.271Z" fill="#303E49"/>
<path d="M9.55836 28.1132C9.55836 30.6784 7.48507 32.7517 4.9198 32.7517C2.35454 32.7517 0.28125 30.6784 0.28125 28.1132C0.28125 25.5479 2.35454 23.4746 4.9198 23.4746H9.55836V28.1132ZM11.8776 28.1132C11.8776 25.5479 13.9509 23.4746 16.5162 23.4746C19.0815 23.4746 21.1547 25.5479 21.1547 28.1132V39.7095C21.1547 42.2748 19.0815 44.3481 16.5162 44.3481C13.9509 44.3481 11.8776 42.2748 11.8776 39.7095V28.1132Z" fill="#303E49"/>
<path d="M16.5162 9.48805C13.9509 9.48805 11.8776 7.41475 11.8776 4.84949C11.8776 2.28423 13.9509 0.210938 16.5162 0.210938C19.0814 0.210938 21.1547 2.28423 21.1547 4.84949V9.48805H16.5162ZM16.5162 11.8425C19.0814 11.8425 21.1547 13.9158 21.1547 16.481C21.1547 19.0463 19.0814 21.1196 16.5162 21.1196H4.88465C2.31939 21.1196 0.246094 19.0463 0.246094 16.481C0.246094 13.9158 2.31939 11.8425 4.88465 11.8425H16.5162Z" fill="#303E49"/>
<path d="M35.1062 16.481C35.1062 13.9158 37.1795 11.8425 39.7447 11.8425C42.31 11.8425 44.3833 13.9158 44.3833 16.481C44.3833 19.0463 42.31 21.1196 39.7447 21.1196H35.1062V16.481ZM32.7869 16.481C32.7869 19.0463 30.7136 21.1196 28.1483 21.1196C25.5831 21.1196 23.5098 19.0463 23.5098 16.481V4.84949C23.5098 2.28423 25.5831 0.210938 28.1483 0.210938C30.7136 0.210938 32.7869 2.28423 32.7869 4.84949V16.481Z" fill="#303E49"/>
<path d="M28.1483 35.071C30.7136 35.071 32.7869 37.1443 32.7869 39.7095C32.7869 42.2748 30.7136 44.3481 28.1483 44.3481C25.5831 44.3481 23.5098 42.2748 23.5098 39.7095V35.071H28.1483ZM28.1483 32.7517C25.5831 32.7517 23.5098 30.6784 23.5098 28.1132C23.5098 25.5479 25.5831 23.4746 28.1483 23.4746H39.7798C42.3451 23.4746 44.4184 25.5479 44.4184 28.1132C44.4184 30.6784 42.3451 32.7517 39.7798 32.7517H28.1483Z" fill="#303E49"/>
</svg>
