<svg width="188" height="32" viewBox="0 0 188 32" fill="none" xmlns="http://www.w3.org/2000/svg">
<path d="M87.1517 12.8844C84.3648 12.8844 82.388 15.1297 82.388 18.5763V31.2189H78.1338V8.96576H82.3371V11.6831C82.8555 10.7825 83.5985 10.041 84.489 9.53555C85.3794 9.03008 86.385 8.77902 87.4014 8.80838H88.9298V12.8844H87.1517ZM75.1941 20.0923C75.1941 13.4563 70.6087 8.49363 64.4032 8.49363C62.937 8.50388 61.4872 8.81253 60.1373 9.40184C58.7874 9.99114 57.5639 10.8495 56.5374 11.9274C55.5108 13.0054 54.7014 14.2817 54.1557 15.683C53.61 17.0842 53.3387 18.5827 53.3576 20.0923C53.3576 26.7231 58.325 31.7382 64.8057 31.7382C66.616 31.7734 68.4079 31.36 70.0306 30.5329C71.6532 29.7057 73.0589 28.4891 74.1293 26.9854L71.0418 24.6563C70.3335 25.6742 69.3962 26.5003 68.3102 27.064C67.2242 27.6276 66.0217 27.9121 64.8057 27.893C63.0737 27.8846 61.402 27.2376 60.0935 26.0693C58.785 24.9009 57.9262 23.2886 57.6729 21.5244H75.2043L75.1941 20.0923ZM57.7646 18.0517C58.5237 14.6576 61.1578 12.3599 64.3523 12.3599C67.5467 12.3599 70.1757 14.6576 70.8889 18.0517H57.7646ZM39.8817 8.49363C38.46 8.49486 37.0526 8.78617 35.7409 9.35073C34.4291 9.91529 33.239 10.7419 32.2394 11.7828V0.65625H27.9852V31.2189H32.1885V28.3966C34.2247 30.5176 36.9954 31.7195 39.8919 31.7382C41.3944 31.7711 42.8881 31.4948 44.2855 30.9255C45.683 30.3561 46.9559 29.5053 48.0298 28.4228C49.1037 27.3403 49.9569 26.048 50.5394 24.6216C51.1219 23.1951 51.4219 21.6633 51.4219 20.1159C51.4219 18.5685 51.1219 17.0367 50.5394 15.6103C49.9569 14.1838 49.1037 12.8915 48.0298 11.809C46.9559 10.7265 45.683 9.87569 44.2855 9.30639C42.8881 8.73708 41.3944 8.46076 39.8919 8.49363H39.8817ZM39.576 27.8248C38.0931 27.832 36.6416 27.3856 35.4056 26.5421C34.1696 25.6986 33.2048 24.496 32.6336 23.087C32.0624 21.678 31.9106 20.1261 32.1974 18.6281C32.4842 17.1301 33.1967 15.7536 34.2445 14.6732C35.2924 13.5929 36.6282 12.8573 38.0827 12.56C39.5372 12.2626 41.0446 12.4168 42.4139 13.003C43.7831 13.5892 44.9523 14.581 45.7732 15.8525C46.5941 17.124 47.0297 18.618 47.0247 20.1448C47.026 21.1518 46.8342 22.1493 46.4602 23.0798C46.0862 24.0104 45.5374 24.8557 44.8454 25.5673C44.1533 26.2789 43.3316 26.8428 42.4273 27.2266C41.523 27.6104 40.5541 27.8066 39.576 27.8038V27.8248ZM12.3185 27.6149C16.425 27.6149 19.6144 24.373 19.6144 19.5153V0.65625H24.0214V31.2189H19.6653V28.3284C18.6476 29.4114 17.4271 30.2706 16.0776 30.854C14.7281 31.4374 13.2777 31.7328 11.8141 31.7225C5.48124 31.7225 0.605469 26.9697 0.605469 19.7618V0.65625H5.09403V19.5415C5.09403 24.4254 8.15095 27.6149 12.3185 27.6149Z" fill="#60658C"/>
<path d="M99.5117 0.65625H120.334V5.90215H105.136V13.3513H119.911V18.4189H105.136V25.994H120.334V31.2399H99.5117V0.65625ZM177.84 31.7907C184.224 31.7907 187.821 28.6431 187.821 24.3205C187.821 21.2412 185.691 18.9435 181.233 17.9467L176.52 16.9553C173.784 16.4307 172.923 15.9061 172.923 14.8569C172.923 13.4982 174.243 12.6641 176.673 12.6641C179.307 12.6641 181.259 13.3933 181.768 15.9008H187.291C186.99 11.1795 183.694 8.06347 177.009 8.06347C171.232 8.06347 167.176 10.5185 167.176 15.2766C167.176 18.5658 169.408 20.7061 174.223 21.75L179.491 23.0038C181.569 23.4235 182.125 24.0005 182.125 24.8871C182.125 26.2982 180.555 27.1848 178.018 27.1848C174.829 27.1848 173.005 26.4556 172.297 23.9481H166.743C167.553 28.6589 170.947 31.7907 177.84 31.7907ZM165.138 31.2189H159.162C155.412 31.2189 153.334 28.8163 153.334 25.7841V13.771H149.13V8.651H153.354V2.22478H158.907V8.651H165.138V13.771H158.907V24.3205C158.907 25.5218 159.718 26.0989 160.986 26.0989H165.138V31.2189ZM141.193 8.6615V10.6969C139.237 8.99506 136.758 8.06527 134.197 8.07396C132.665 8.04076 131.141 8.32294 129.715 8.90397C128.29 9.48499 126.991 10.3532 125.896 11.4576C124.8 12.562 123.93 13.8805 123.336 15.3358C122.742 16.791 122.436 18.3537 122.436 19.9323C122.436 21.5109 122.742 23.0736 123.336 24.5289C123.93 25.9841 124.8 27.3026 125.896 28.407C126.991 29.5115 128.29 30.3796 129.715 30.9607C131.141 31.5417 132.665 31.8239 134.197 31.7907C136.758 31.8021 139.239 30.872 141.193 29.1677V31.2084H146.731V8.651L141.193 8.6615ZM134.656 26.8385C133.328 26.8542 132.025 26.4627 130.913 25.714C129.801 24.9654 128.93 23.8932 128.412 22.6338C127.893 21.3745 127.75 19.9848 128 18.6413C128.25 17.2979 128.882 16.0614 129.817 15.089C130.751 14.1165 131.945 13.4521 133.247 13.18C134.549 12.908 135.9 13.0407 137.129 13.5612C138.358 14.0818 139.408 14.9667 140.147 16.1034C140.886 17.2402 141.28 18.5775 141.279 19.9454C141.287 20.8472 141.122 21.7416 140.792 22.577C140.462 23.4123 139.974 24.1721 139.358 24.8121C138.741 25.4522 138.007 25.96 137.198 26.306C136.389 26.652 135.522 26.8295 134.646 26.8281L134.656 26.8385Z" fill="#60658C"/>
</svg>
