<svg width="40" height="40" viewBox="0 0 40 40" fill="none" xmlns="http://www.w3.org/2000/svg">
<path d="M29.9999 13.183C29.9499 13.183 29.9165 13.183 29.8665 13.183H29.7832C26.6332 13.083 24.2832 10.6496 24.2832 7.64961C24.2832 4.58295 26.7832 2.09961 29.8332 2.09961C32.8832 2.09961 35.3832 4.59961 35.3832 7.64961C35.3665 10.6663 33.0165 13.0996 30.0165 13.1996C30.0165 13.1829 30.0165 13.183 29.9999 13.183ZM29.8332 4.58295C28.1499 4.58295 26.7832 5.94962 26.7832 7.63295C26.7832 9.28295 28.0665 10.6163 29.7165 10.683C29.7332 10.6663 29.8665 10.6663 30.0165 10.683C31.6332 10.5996 32.8832 9.26629 32.8999 7.63295C32.8999 5.94962 31.5332 4.58295 29.8332 4.58295Z" fill="#3A78F2"/>
<path d="M30.0175 25.4658C29.3675 25.4658 28.7175 25.4158 28.0675 25.2991C27.3842 25.1824 26.9341 24.5324 27.0508 23.8491C27.1675 23.1658 27.8175 22.7158 28.5008 22.8324C30.5508 23.1824 32.7175 22.7991 34.1675 21.8325C34.9508 21.3158 35.3675 20.6658 35.3675 20.0158C35.3675 19.3658 34.9341 18.7324 34.1675 18.2158C32.7175 17.2491 30.5175 16.8658 28.4508 17.2324C27.7675 17.3658 27.1175 16.8991 27.0008 16.2158C26.8842 15.5324 27.3342 14.8824 28.0175 14.7658C30.7342 14.2824 33.5508 14.7991 35.5508 16.1324C37.0175 17.1158 37.8675 18.5158 37.8675 20.0158C37.8675 21.4991 37.0342 22.9158 35.5508 23.9158C34.0342 24.9158 32.0675 25.4658 30.0175 25.4658Z" fill="#3A78F2"/>
<path d="M9.95078 13.184C9.93412 13.184 9.91745 13.184 9.91745 13.184C6.91745 13.084 4.56745 10.6506 4.55078 7.65064C4.55078 4.58398 7.05078 2.08398 10.1008 2.08398C13.1508 2.08398 15.6508 4.58399 15.6508 7.63399C15.6508 10.6507 13.3008 13.084 10.3008 13.184L10.1174 13.2161L10.0675 13.184C10.0341 13.184 9.98412 13.184 9.95078 13.184ZM10.1646 10.7006C10.2646 10.7006 10.3008 10.684 10.4008 10.7006C11.8841 10.634 13.1841 9.30064 13.1841 7.65064C13.1841 5.96731 11.8175 4.60064 10.1341 4.60064C8.45079 4.60064 7.08412 5.96731 7.08412 7.65064C7.08412 9.28398 8.35078 10.6006 9.96745 10.7006C9.98412 10.684 10.0979 10.7006 10.1646 10.7006Z" fill="#3A78F2"/>
<path d="M9.93398 25.4658C7.88398 25.4658 5.91732 24.9158 4.40065 23.9158C2.93398 22.9325 2.08398 21.5158 2.08398 20.0158C2.08398 18.5324 2.93398 17.1158 4.40065 16.1324C6.40065 14.7991 9.21732 14.2824 11.934 14.7658C12.6173 14.8824 13.0673 15.5324 12.9507 16.2158C12.834 16.8991 12.184 17.3658 11.5007 17.2324C9.43399 16.8658 7.25065 17.2491 5.78399 18.2158C5.00065 18.7324 4.58398 19.3658 4.58398 20.0158C4.58398 20.6658 5.01732 21.3158 5.78399 21.8325C7.23399 22.7991 9.40065 23.1824 11.4506 22.8324C12.134 22.7158 12.784 23.1824 12.9007 23.8491C13.0173 24.5324 12.5673 25.1824 11.884 25.2991C11.234 25.4158 10.584 25.4658 9.93398 25.4658Z" fill="#3A78F2"/>
<path d="M19.9999 25.6341C19.9499 25.6341 19.9165 25.6341 19.8665 25.6341H19.7832C16.6332 25.5341 14.2832 23.1008 14.2832 20.1008C14.2832 17.0341 16.7832 14.5508 19.8332 14.5508C22.8832 14.5508 25.3832 17.0508 25.3832 20.1008C25.3665 23.1175 23.0165 25.5508 20.0165 25.6508C20.0165 25.6341 20.0165 25.6341 19.9999 25.6341ZM19.8332 17.0341C18.1499 17.0341 16.7832 18.4008 16.7832 20.0841C16.7832 21.7341 18.0665 23.0675 19.7165 23.1341C19.7332 23.1175 19.8665 23.1175 20.0165 23.1341C21.6332 23.0508 22.8832 21.7175 22.8999 20.0841C22.8999 18.4175 21.5332 17.0341 19.8332 17.0341Z" fill="#3A78F2"/>
<path d="M19.9995 37.9332C17.9995 37.9332 15.9995 37.4166 14.4495 36.3666C12.9828 35.3832 12.1328 33.9832 12.1328 32.4832C12.1328 30.9999 12.9661 29.5665 14.4495 28.5832C17.5661 26.5165 22.4495 26.5165 25.5495 28.5832C27.0162 29.5665 27.8661 30.9665 27.8661 32.4665C27.8661 33.9499 27.0328 35.3832 25.5495 36.3666C23.9995 37.3999 21.9995 37.9332 19.9995 37.9332ZM15.8328 30.6832C15.0495 31.1999 14.6328 31.8499 14.6328 32.4999C14.6328 33.1499 15.0661 33.7832 15.8328 34.2999C18.0828 35.8166 21.8995 35.8166 24.1495 34.2999C24.9328 33.7832 25.3495 33.1332 25.3495 32.4832C25.3495 31.8332 24.9162 31.1999 24.1495 30.6832C21.9162 29.1666 18.0995 29.1832 15.8328 30.6832Z" fill="#3A78F2"/>
</svg>
